<svg width="24" height="25" viewBox="0 0 24 25" fill="none" xmlns="http://www.w3.org/2000/svg">
<rect y="0.5" width="24" height="24" rx="12" fill="white"/>
<g clip-path="url(#clip0_1241_6427)">
<path d="M6.5 5.25C6.5 4.83437 6.16562 4.5 5.75 4.5C5.33437 4.5 5 4.83437 5 5.25V6.5V15.4531V17V19.75C5 20.1656 5.33437 20.5 5.75 20.5C6.16562 20.5 6.5 20.1656 6.5 19.75V16.625L9.00938 15.9969C10.2937 15.675 11.6531 15.825 12.8375 16.4156C14.2188 17.1062 15.8219 17.1906 17.2656 16.6469L18.35 16.2406C18.7406 16.0938 19 15.7219 19 15.3031V6.5625C19 5.84375 18.2438 5.375 17.6 5.69687L17.3 5.84687C15.8531 6.57188 14.15 6.57188 12.7031 5.84687C11.6062 5.29687 10.3469 5.15938 9.15625 5.45625L6.5 6.125V5.25ZM6.5 7.67188L9.51875 6.91563C10.3625 6.70625 11.2531 6.80312 12.0312 7.19062C13.7469 8.04688 15.7406 8.11875 17.5 7.40313V14.9594L16.7375 15.2437C15.6844 15.6375 14.5125 15.5781 13.5063 15.075C12 14.3219 10.2781 14.1344 8.64375 14.5406L6.5 15.0781V7.67188Z" fill="#2F3036"/>
</g>
<defs>
<clipPath id="clip0_1241_6427">
<rect width="14" height="16" fill="white" transform="translate(5 4.5)"/>
</clipPath>
</defs>
</svg>
